<svg viewBox="0 0 24 24" xmlns="http://www.w3.org/2000/svg"><path d="M7.692 18.278 9.707 20.293C9.993 20.579 10.079 21.009 9.924 21.383 9.769 21.756 9.404 22 9 22H3C2.448 22 2 21.552 2 21V15C2 14.596 2.244 14.231 2.617 14.076 2.991 13.921 3.421 14.007 3.707 14.293L5.571 16.157 9.253 12.475C9.643 12.084 10.277 12.084 10.667 12.475L11.374 13.182C11.765 13.573 11.765 14.206 11.374 14.596L7.692 18.278ZM16.308 5.722 14.293 3.707C14.007 3.421 13.921 2.991 14.076 2.617 14.231 2.244 14.596 2 15 2H21C21.552 2 22 2.448 22 3V9C22 9.404 21.756 9.769 21.383 9.924 21.009 10.079 20.579 9.993 20.293 9.707L18.429 7.843 14.747 11.525C14.357 11.916 13.723 11.916 13.333 11.525L12.626 10.818C12.235 10.428 12.235 9.794 12.626 9.404L16.308 5.722Z"/></svg>